<svg width="36" height="36" viewBox="0 0 36 36" fill="none" xmlns="http://www.w3.org/2000/svg">
<circle cx="18" cy="18" r="13.5" fill="#2F65A5"/>
<path fill-rule="evenodd" clip-rule="evenodd" d="M23.3876 22.2125C23.2383 22.2125 23.1308 22.2544 23.0653 22.3436C23.0002 22.4274 22.9685 22.5714 22.9685 22.7713V23.2527H23.7976V22.7713C23.7976 22.5714 23.7643 22.4274 23.6982 22.3436C23.6359 22.2544 23.53 22.2125 23.3876 22.2125ZM20.1541 22.1958C20.2798 22.1958 20.3782 22.2366 20.4464 22.3194C20.5125 22.4021 20.5458 22.5252 20.5458 22.6858V25.1489C20.5458 25.3025 20.5173 25.4105 20.4636 25.4772C20.4099 25.5454 20.326 25.5787 20.211 25.5787C20.1315 25.5787 20.0568 25.561 19.9848 25.5271C19.9123 25.4938 19.8376 25.4353 19.7619 25.359V22.3871C19.8258 22.3215 19.8903 22.2726 19.9553 22.2415C20.0203 22.2098 20.0864 22.1958 20.1541 22.1958ZM22.9691 23.9953V24.8936C22.9691 25.1451 22.9997 25.3192 23.0604 25.417C23.1238 25.5142 23.2286 25.5615 23.3785 25.5615C23.5338 25.5615 23.6423 25.5207 23.7041 25.4385C23.7654 25.3563 23.7982 25.1757 23.7982 24.8942V24.6766H24.7626V24.9216C24.7626 25.4111 24.646 25.7791 24.4096 26.0279C24.1759 26.2745 23.8245 26.397 23.3576 26.397C22.9379 26.397 22.6064 26.267 22.3651 26.0043C22.1244 25.7431 22.0019 25.3826 22.0019 24.9221V22.7804C22.0019 22.3677 22.1357 22.0292 22.4006 21.7692C22.6655 21.5086 23.0067 21.3785 23.4274 21.3785C23.8567 21.3785 24.1866 21.4994 24.4177 21.7407C24.6482 21.9814 24.7626 22.328 24.7626 22.7804V23.9969H22.9691V23.9953ZM21.29 26.0569C21.1444 26.2375 20.9305 26.3261 20.6522 26.3261C20.4679 26.3261 20.3051 26.2928 20.1621 26.223C20.0187 26.1536 19.8833 26.0473 19.7613 25.9V26.2659H18.8135V19.801H19.7613V21.8831C19.8887 21.738 20.0219 21.6262 20.1632 21.5516C20.3067 21.4753 20.4502 21.4382 20.5958 21.4382C20.8934 21.4382 21.1196 21.5397 21.2755 21.7418C21.4334 21.9454 21.5108 22.2431 21.5108 22.6337V25.2805C21.5108 25.6179 21.4372 25.8764 21.29 26.0569ZM17.1715 26.2659V25.7415C16.9968 25.9355 16.8179 26.0833 16.6293 26.1832C16.4418 26.2858 16.2607 26.3347 16.0845 26.3347C15.8669 26.3347 15.7057 26.2654 15.5939 26.1219C15.4859 25.979 15.43 25.7684 15.43 25.4831V21.4951H16.3671V25.1537C16.3671 25.2671 16.387 25.3482 16.4246 25.3993C16.466 25.4503 16.5299 25.475 16.617 25.475C16.6857 25.475 16.7739 25.4417 16.8792 25.374C16.985 25.3068 17.0807 25.2219 17.1704 25.1188V21.4951H18.1075V26.2654H17.1715V26.2659ZM13.925 20.7402V26.2659H12.8676V20.7402H11.7747V19.801H15.0179V20.7402H13.925ZM18.2654 17.7194C18.2654 17.7189 24.7562 17.7291 25.5267 18.4985C26.2999 19.2696 26.3085 23.0732 26.3085 23.0953C26.3085 23.0953 26.302 26.9193 25.5267 27.6925C24.7562 28.4609 18.2654 28.4775 18.2654 28.4775C18.2654 28.4775 11.7752 28.4609 11.0031 27.692C10.2304 26.9209 10.2288 23.1237 10.2288 23.0947C10.2288 23.0727 10.231 19.269 11.0031 18.498C11.7758 17.7291 18.2654 17.7189 18.2654 17.7194ZM23.3839 15.719H22.3275V15.1387C22.1352 15.352 21.9321 15.5165 21.7204 15.6271C21.5097 15.7389 21.3061 15.7948 21.1078 15.7948C20.8617 15.7948 20.6796 15.7163 20.556 15.56C20.433 15.4036 20.3706 15.1693 20.3706 14.8556V10.4646H21.4248V14.4929C21.4248 14.617 21.449 14.7073 21.4931 14.7626C21.5361 14.8185 21.6091 14.8464 21.7075 14.8464C21.7843 14.8464 21.8832 14.8093 22.0019 14.7357C22.1201 14.6621 22.2292 14.5681 22.327 14.4526V10.4646H23.3833V15.719H23.3839ZM17.6491 14.8233C17.7238 14.9023 17.8313 14.941 17.9715 14.941C18.1144 14.941 18.2273 14.9007 18.3122 14.8212C18.3965 14.7395 18.4384 14.6288 18.4384 14.4891V11.6268C18.4384 11.5119 18.3955 11.4189 18.309 11.348C18.223 11.2776 18.1101 11.2427 17.9715 11.2427C17.842 11.2427 17.7378 11.2776 17.6567 11.348C17.5771 11.4189 17.5358 11.5119 17.5358 11.6268V14.4891C17.5358 14.6326 17.5744 14.7433 17.6491 14.8233ZM16.8759 10.6941C17.1596 10.4528 17.5427 10.3319 18.0215 10.3319C18.4578 10.3319 18.8167 10.4593 19.0967 10.7139C19.3744 10.9681 19.5142 11.2959 19.5142 11.6962V14.4101C19.5142 14.8593 19.3771 15.2113 19.1047 15.4676C18.8291 15.7233 18.4535 15.8512 17.9731 15.8512C17.5121 15.8512 17.1419 15.719 16.8641 15.4557C16.5885 15.1914 16.4493 14.8362 16.4493 14.3897V11.6666C16.4488 11.2588 16.5906 10.9348 16.8759 10.6941ZM13.5736 8.59693H12.3759L13.7912 12.8971V15.719H14.9803V12.7638L16.3633 8.59693H15.1544L14.4204 11.4436H14.3457L13.5736 8.59693ZM18.2687 34.388C9.36645 34.388 2.14925 27.1708 2.14925 18.2686C2.14925 9.36583 9.36645 2.14917 18.2687 2.14917C27.1709 2.14917 34.3881 9.36583 34.3881 18.2686C34.3881 27.1708 27.1709 34.388 18.2687 34.388Z" fill="white"/>
</svg>
