<svg width="36" height="36" viewBox="0 0 36 36" fill="none" xmlns="http://www.w3.org/2000/svg">
<circle cx="18" cy="18" r="13.5" fill="#2F65A5"/>
<path fill-rule="evenodd" clip-rule="evenodd" d="M23.2501 14.2806V14.2774C23.5198 14.2774 23.7901 14.2828 24.0604 14.2763C24.4075 14.2677 24.6901 13.9701 24.6901 13.6224C24.6901 13.105 24.6901 12.587 24.6901 12.0696C24.6901 11.6983 24.3962 11.4033 24.026 11.4028C23.5096 11.4028 22.9933 11.4022 22.4769 11.4028C22.1072 11.4033 21.8128 11.6994 21.8128 12.0707C21.8122 12.5838 21.8106 13.0969 21.8144 13.6101C21.8149 13.6869 21.8294 13.7664 21.8536 13.839C21.9466 14.1119 22.197 14.2796 22.5032 14.2812C22.752 14.2812 23.0013 14.2806 23.2501 14.2806ZM18.2687 14.9464C16.4504 14.9453 14.9722 16.4084 14.947 18.2181C14.9207 20.0772 16.4085 21.5499 18.1924 21.5881C20.0482 21.6279 21.5495 20.1449 21.5887 18.3411C21.629 16.482 20.1288 14.9453 18.2687 14.9464ZM11.8456 16.719V16.763C11.8456 19.189 11.8451 21.615 11.8456 24.0409C11.8456 24.3896 12.1476 24.69 12.4968 24.69C16.344 24.6905 20.1906 24.6905 24.0378 24.69C24.3903 24.69 24.6906 24.3907 24.6906 24.0388C24.6912 21.616 24.6906 19.1922 24.6906 16.77V16.7195H23.126C23.3468 17.4255 23.4145 18.1439 23.328 18.8763C23.2415 19.6086 23.0051 20.2899 22.6209 20.9197C22.2367 21.5494 21.7375 22.0722 21.1277 22.4876C19.5458 23.5654 17.4627 23.66 15.7836 22.7175C14.9352 22.242 14.2689 21.5784 13.8036 20.7225C13.111 19.4474 13.0003 18.1085 13.4065 16.719C12.8864 16.719 12.3695 16.719 11.8456 16.719ZM24.8266 26.4653C24.912 26.4513 24.9974 26.439 25.0818 26.4207C25.7513 26.2783 26.2983 25.72 26.4294 25.0468C26.4428 24.9732 26.4535 24.9001 26.4654 24.827V11.7101C26.4541 11.6387 26.4439 11.5661 26.4304 11.4947C26.2864 10.7602 25.6804 10.1901 24.9367 10.088C24.9055 10.0842 24.876 10.0772 24.8454 10.0719H11.6925C11.6135 10.0864 11.5334 10.0971 11.4555 10.1148C10.7291 10.2803 10.1918 10.8649 10.0881 11.601C10.0838 11.6317 10.0773 11.6623 10.0725 11.6929V24.8453C10.0875 24.928 10.0993 25.0124 10.1181 25.0951C10.2788 25.8055 10.8849 26.3562 11.6065 26.4492C11.6409 26.4535 11.6764 26.4605 11.7113 26.4653H24.8266V26.4653ZM18.2687 34.388C9.36645 34.388 2.14925 27.1708 2.14925 18.2686C2.14925 9.36583 9.36645 2.14917 18.2687 2.14917C27.1709 2.14917 34.3881 9.36583 34.3881 18.2686C34.3881 27.1708 27.1709 34.388 18.2687 34.388Z" fill="white"/>
</svg>
