<svg width="36" height="36" viewBox="0 0 36 36" fill="none" xmlns="http://www.w3.org/2000/svg">
<circle cx="18" cy="18" r="13.5" fill="#2F65A5"/>
<path fill-rule="evenodd" clip-rule="evenodd" d="M15.9931 27.0375H19.6168V18.2675H22.0341L22.3544 15.2456H19.6168L19.6205 13.7326C19.6205 12.9449 19.6958 12.522 20.8263 12.522H22.3372V9.49962H19.9193C17.0151 9.49962 15.9931 10.9659 15.9931 13.4311V15.2456H14.1829V18.268H15.9931V27.0375V27.0375ZM18.2687 34.388C9.36645 34.388 2.14925 27.1708 2.14925 18.2686C2.14925 9.36583 9.36645 2.14917 18.2687 2.14917C27.1709 2.14917 34.3881 9.36583 34.3881 18.2686C34.3881 27.1708 27.1709 34.388 18.2687 34.388Z" fill="white"/>
</svg>
