<svg width="36" height="36" viewBox="0 0 36 36" fill="none" xmlns="http://www.w3.org/2000/svg">
<circle cx="18" cy="18" r="13.5" fill="#2F65A5"/>
<path fill-rule="evenodd" clip-rule="evenodd" d="M20.5076 11.9729C19.1004 12.4849 18.2112 13.8056 18.3122 15.251L18.346 15.8088L17.7829 15.7405C15.7341 15.4788 13.9438 14.5912 12.4238 13.0996L11.6807 12.3597L11.4894 12.9062C11.0842 14.1243 11.3432 15.4106 12.1873 16.2757C12.6376 16.7539 12.5361 16.8221 11.7596 16.5373C11.4894 16.4465 11.253 16.3783 11.2304 16.4122C11.1519 16.4922 11.4217 17.5276 11.6355 17.9376C11.9284 18.5071 12.5248 19.0643 13.1781 19.3948L13.73 19.6565L13.0771 19.6677C12.4469 19.6677 12.4243 19.679 12.492 19.9187C12.7171 20.6585 13.6064 21.4441 14.5972 21.7858L15.2952 22.0244L14.6875 22.3887C13.7869 22.9131 12.7284 23.2086 11.6699 23.2307C11.1627 23.2419 10.7463 23.2876 10.7463 23.322C10.7463 23.4354 12.1202 24.0726 12.9192 24.3236C15.3172 25.0634 18.166 24.7443 20.3051 23.481C21.8251 22.5816 23.3447 20.7945 24.0544 19.0638C24.4376 18.1423 24.8201 16.4573 24.8201 15.6497C24.8201 15.1258 24.854 15.0576 25.4842 14.4316C25.8561 14.0673 26.2048 13.6692 26.2725 13.5553C26.3853 13.3387 26.3735 13.3387 25.7996 13.5322C24.8427 13.8739 24.7073 13.8282 25.1807 13.3162C25.5294 12.9519 25.9463 12.2915 25.9463 12.0981C25.9463 12.0642 25.7776 12.1206 25.5858 12.2233C25.3832 12.3372 24.933 12.508 24.595 12.6101L23.9873 12.8041L23.4355 12.428C23.1313 12.2233 22.7042 11.9954 22.4785 11.9272C21.9041 11.7682 21.0256 11.7907 20.5076 11.9729ZM18.2687 34.388C9.36645 34.388 2.14925 27.1708 2.14925 18.2686C2.14925 9.36583 9.36645 2.14917 18.2687 2.14917C27.1709 2.14917 34.3881 9.36583 34.3881 18.2686C34.3881 27.1708 27.1709 34.388 18.2687 34.388Z" fill="white"/>
</svg>
